HIERARCHY
ROOT Hips
{
	OFFSET -3.958830 18.904000 13.208200
	CHANNELS 6 Xposition Yposition Zposition Zrotation Yrotation Xrotation 
	JOINT LHipJoint
	{
		OFFSET 0.000000 0.000000 0.000000
		CHANNELS 3 Zrotation Yrotation Xrotation
		JOINT LeftUpLeg
		{
			OFFSET 1.800000 -1.400000 0.085000
			CHANNELS 3 Zrotation Yrotation Xrotation
			JOINT LeftLeg
			{
				OFFSET 2.215000 -6.000000 0.000000
				CHANNELS 3 Zrotation Yrotation Xrotation
				JOINT LeftFoot
				{
					OFFSET 2.500000 -6.900000 0.000000
					CHANNELS 3 Zrotation Yrotation Xrotation
					JOINT LeftToeBase
					{
						OFFSET 0.200000 -0.500000 1.950000
						CHANNELS 3 Zrotation Yrotation Xrotation
						End Site
						{
							OFFSET 0.000000 0.000000 0.000000
						}
					}
				}
			}
		}
	}
	JOINT RHipJoint
	{
		OFFSET 0.000000 0.000000 0.000000
		CHANNELS 3 Zrotation Yrotation Xrotation
		JOINT RightUpLeg
		{
			OFFSET -1.800000 -1.400000 0.085000
			CHANNELS 3 Zrotation Yrotation Xrotation
			JOINT RightLeg
			{
				OFFSET -2.215000 -6.000000 0.000000
				CHANNELS 3 Zrotation Yrotation Xrotation
				JOINT RightFoot
				{
					OFFSET -2.500000 -6.900000 0.000000
					CHANNELS 3 Zrotation Yrotation Xrotation
					JOINT RightToeBase
					{
						OFFSET -0.200000 -0.500000 1.950000
						CHANNELS 3 Zrotation Yrotation Xrotation
						End Site
						{
							OFFSET 0.000000 0.000000 0.000000
						}
					}
				}
			}
		}
	}
	JOINT LowerBack
	{
		OFFSET 0.000000 0.000000 0.000000
		CHANNELS 3 Zrotation Yrotation Xrotation
		JOINT Spine
		{
			OFFSET -0.087000 1.940000 -0.288900
			CHANNELS 3 Zrotation Yrotation Xrotation
			JOINT Spine1
			{
				OFFSET 0.000000 1.950000 0.060000
				CHANNELS 3 Zrotation Yrotation Xrotation
				JOINT Neck
				{
					OFFSET 0.000000 0.000000 0.000000
					CHANNELS 3 Zrotation Yrotation Xrotation
					JOINT Neck1
					{
						OFFSET 0.000000 1.600000 0.340000
						CHANNELS 3 Zrotation Yrotation Xrotation
						JOINT Head
						{
							OFFSET 0.000000 1.667000 -0.240000
							CHANNELS 3 Zrotation Yrotation Xrotation
							End Site
							{
								OFFSET 0.000000 0.000000 0.000000
							}
						}
					}
				}
				JOINT LeftShoulder
				{
					OFFSET 0.000000 0.000000 0.000000
					CHANNELS 3 Zrotation Yrotation Xrotation
					JOINT LeftArm
					{
						OFFSET 2.700000 1.550000 -0.730000
						CHANNELS 3 Zrotation Yrotation Xrotation
						JOINT LeftForeArm
						{
							OFFSET 5.450000 0.000000 0.000000
							CHANNELS 3 Zrotation Yrotation Xrotation
							JOINT LeftHand
							{
								OFFSET 3.450000 0.000000 0.000000
								CHANNELS 3 Zrotation Yrotation Xrotation
								JOINT LeftHandIndex1
								{
									OFFSET 0.750000 0.000000 0.000000
									CHANNELS 3 Zrotation Yrotation Xrotation
									End Site
									{
										OFFSET 0.000000 0.000000 0.000000
									}
								}
							}
						}
					}
				}
				JOINT RightShoulder
				{
					OFFSET 0.000000 0.000000 0.000000
					CHANNELS 3 Zrotation Yrotation Xrotation
					JOINT RightArm
					{
						OFFSET -2.700000 1.550000 -0.730000
						CHANNELS 3 Zrotation Yrotation Xrotation
						JOINT RightForeArm
						{
							OFFSET -5.450000 0.000000 0.000000
							CHANNELS 3 Zrotation Yrotation Xrotation
							JOINT RightHand
							{
								OFFSET -3.450000 0.000000 0.000000
								CHANNELS 3 Zrotation Yrotation Xrotation
								JOINT RightHandIndex1
								{
									OFFSET -0.750000 0.000000 0.000000
									CHANNELS 3 Zrotation Yrotation Xrotation
									End Site
									{
										OFFSET 0.000000 0.000000 0.000000
									}
								}
							}
						}
					}
				}
			}
		}
	}
}
MOTION
Frames: 11
Frame Time: 0.016667
0.399290 16.942420 -1.112960 -3.274251 -1.970500 -1.694832 -15.275882 14.370690 3.218818 3.712718 -0.894087 -8.189866 -8.705013 7.133386 17.299351 -0.617582 5.407264 3.127119 0.319720 -0.309600 0.240450 17.928587 -10.741611 2.898153 -1.944578 1.035384 -7.122770 8.652509 -6.742191 17.903476 -0.526507 -4.117986 3.174916 -0.105190 0.646890 0.396780 -2.881305 -3.680070 -8.032290 9.255897 -1.368958 23.101253 -2.477405 1.943103 -7.948480 3.452581 -4.772173 -9.627597 -10.773751 3.387457 34.128491 -2.269440 0.456860 -12.930550 -12.710226 -6.335511 1.292191 26.657489 12.191966 3.520898 5.488078 -0.546136 -1.476427 -3.885963 2.669423 0.988440 0.235110 -0.075670 0.349740 6.346133 12.504095 5.461608 -29.623797 -12.964315 1.551364 -3.318959 7.259763 0.238863 1.839956 -1.451187 -0.491840 0.472600 0.131540 -0.279920 
0.398430 16.917830 -1.122330 -3.252758 -1.936738 -2.096945 -15.271107 14.348213 3.213329 4.263775 -1.078086 -8.787838 -9.439492 7.703830 19.098947 -0.602505 5.708000 3.015953 0.311120 -0.326230 0.239500 17.932194 -10.746459 2.859947 -2.437781 1.295959 -7.622501 9.302559 -7.202993 19.651539 -0.546746 -4.307397 3.101505 -0.100240 0.668050 0.399390 -2.894495 -3.646176 -7.998350 9.159176 -1.403253 23.686377 -2.488987 1.911889 -7.280264 3.380176 -4.743129 -9.485621 -10.468003 3.212991 33.002427 -2.435570 0.454480 -13.416050 -13.059778 -6.417008 1.279035 26.733139 12.275744 3.565825 5.643177 -0.283419 -1.516089 -3.908781 2.655487 0.994410 0.248530 -0.087030 0.348050 6.786634 12.463395 5.429960 -29.647114 -12.920144 1.424418 -3.924154 6.403798 0.156034 1.829023 -1.427528 -0.512770 0.492990 0.147110 -0.287210 
0.396900 16.888500 -1.130740 -3.239008 -1.936996 -2.432518 -15.265962 14.298958 3.216540 4.879961 -1.285844 -9.431195 -10.283213 8.333285 20.851795 -0.579016 6.037213 2.893343 0.308770 -0.337200 0.244540 17.940156 -10.739925 2.827439 -2.983247 1.600209 -8.212428 10.098988 -7.735376 21.422364 -0.576481 -4.528106 3.015801 -0.094520 0.685160 0.403630 -2.914088 -3.587078 -7.975263 9.086785 -1.404654 24.107972 -2.529366 1.890299 -6.465450 3.315929 -4.670229 -9.380643 -10.094527 3.007925 31.934205 -2.602610 0.439060 -13.951980 -13.343862 -6.508557 1.308431 26.685459 12.311650 3.582178 5.863684 0.016155 -1.553414 -3.933271 2.639355 1.001730 0.260140 -0.096160 0.346110 7.140754 12.392275 5.422254 -29.531694 -12.918648 1.308793 -4.363095 5.654674 0.086105 1.818647 -1.408052 -0.529780 0.510000 0.158860 -0.295500 
0.394690 16.857660 -1.139490 -3.212297 -1.956357 -2.742466 -15.263324 14.232192 3.235631 5.588774 -1.511138 -10.093476 -11.292901 9.047813 22.544660 -0.545428 6.400891 2.755592 0.312560 -0.342220 0.255450 17.948267 -10.715189 2.799849 -3.602722 1.947236 -8.875582 10.997751 -8.335288 23.229146 -0.617004 -4.775184 2.920993 -0.087450 0.693270 0.405080 -2.930634 -3.532308 -7.970849 8.971112 -1.393017 24.483178 -2.552706 1.876711 -5.647051 3.239866 -4.571748 -9.357826 -9.754250 2.825200 31.154749 -2.709220 0.422730 -14.601140 -13.608924 -6.636436 1.352995 26.637441 12.361972 3.586957 5.990912 0.262701 -1.588518 -3.947688 2.620319 1.016040 0.264200 -0.098920 0.345410 7.513151 12.319624 5.536093 -29.149701 -12.842846 1.123016 -5.157187 4.754848 0.023449 1.820517 -1.373984 -0.545900 0.525690 0.164620 -0.305890 
0.394930 16.824410 -1.147680 -3.244640 -1.986267 -2.988522 -15.253973 14.138928 3.263142 6.352061 -1.744799 -10.778571 -12.352962 9.800148 24.142796 -0.492998 6.767858 2.612853 0.321070 -0.335220 0.266940 17.966054 -10.681093 2.784948 -4.253279 2.316340 -9.594253 12.024099 -8.997398 24.967057 -0.667102 -5.046918 2.814667 -0.078080 0.691560 0.407310 -2.971091 -3.446782 -7.980473 9.081466 -1.453464 24.752902 -2.748081 1.825962 -4.847525 3.175738 -4.479726 -9.374025 -9.457866 2.682380 30.542196 -2.763510 0.425850 -15.156020 -13.872281 -6.770833 1.429646 26.508857 12.413658 3.564378 6.276391 0.545596 -1.601959 -3.958177 2.606831 1.022290 0.263890 -0.095400 0.345110 7.844132 12.238231 5.667743 -28.669442 -12.710107 0.941016 -5.829302 3.899067 -0.027208 1.832427 -1.347784 -0.550590 0.531890 0.162730 -0.311260 
0.395430 16.788020 -1.156440 -3.210879 -2.013583 -3.201315 -15.252009 14.034035 3.306202 7.063681 -2.004459 -11.518370 -13.446169 10.618397 25.769956 -0.430777 7.161297 2.463740 0.322450 -0.333430 0.274150 17.979553 -10.625928 2.775520 -5.022441 2.707282 -10.394062 13.144912 -9.732701 26.690878 -0.720089 -5.344154 2.703614 -0.072280 0.692850 0.400820 -2.996135 -3.381247 -8.006084 9.054734 -1.487882 24.996444 -2.859596 1.778878 -4.115271 3.124735 -4.409287 -9.430445 -9.236468 2.602749 30.083657 -2.827230 0.470010 -15.540130 -14.110187 -6.915003 1.567618 26.220379 12.578631 3.542179 6.676877 0.757526 -1.595242 -3.970531 2.584001 1.027430 0.263630 -0.096110 0.343190 8.146625 12.221069 5.788503 -28.267830 -12.592252 0.780488 -6.272379 3.167063 -0.065835 1.843688 -1.320702 -0.559960 0.543900 0.163250 -0.316520 
0.396150 16.748270 -1.165050 -3.202744 -2.038827 -3.369941 -15.250831 13.910261 3.362423 7.843408 -2.272016 -12.298414 -14.621942 11.504097 27.336003 -0.357730 7.580786 2.307829 0.319610 -0.335300 0.280620 17.995863 -10.554732 2.776168 -5.777624 3.118193 -11.243353 14.267639 -10.508763 28.383041 -0.777461 -5.659309 2.586140 -0.069870 0.696540 0.394130 -3.024736 -3.309993 -8.046691 9.102400 -1.547503 25.227476 -3.045035 1.735186 -3.522153 3.100431 -4.311562 -9.478476 -8.983050 2.511523 29.721813 -2.982920 0.525130 -15.748950 -14.396782 -7.064775 1.686940 25.987563 12.702636 3.518114 7.166149 0.967231 -1.581436 -3.987501 2.559520 1.028660 0.265710 -0.098930 0.338640 8.438709 12.199598 5.895639 -27.854341 -12.455098 0.638117 -6.583058 2.559709 -0.098111 1.855285 -1.296662 -0.568420 0.555760 0.166020 -0.320680 
0.396410 16.706040 -1.173800 -3.222423 -2.033889 -3.521453 -15.252448 13.775065 3.427862 8.684554 -2.538617 -13.088290 -15.805993 12.422063 28.831806 -0.278621 8.012280 2.149241 0.322300 -0.334020 0.287740 18.012610 -10.465406 2.788337 -6.523507 3.532612 -12.078709 15.457951 -11.343671 29.995292 -0.843797 -5.995239 2.464718 -0.065750 0.698950 0.390970 -3.051202 -3.248509 -8.100759 9.187535 -1.629446 25.464413 -3.224062 1.690770 -3.072739 3.075279 -4.250131 -9.496678 -8.816482 2.453939 29.470414 -3.025380 0.531590 -15.896450 -14.749998 -7.227314 1.814513 25.710374 12.792735 3.483756 7.886018 1.153844 -1.551700 -4.003162 2.539384 1.031320 0.267210 -0.100020 0.338510 8.802493 12.241852 5.929690 -27.672747 -12.325108 0.528731 -6.675422 2.060294 -0.129803 1.859250 -1.283030 -0.574300 0.564120 0.165010 -0.324280 
0.397130 16.661010 -1.181790 -3.223231 -2.048081 -3.641580 -15.252171 13.614649 3.503592 9.537017 -2.799925 -13.865191 -17.093820 13.399043 30.220058 -0.184436 8.453318 1.989868 0.330190 -0.324720 0.295590 18.034998 -10.365430 2.810150 -7.377309 3.950292 -12.961617 16.753644 -12.258540 31.554002 -0.920850 -6.358455 2.330913 -0.059610 0.700080 0.392530 -3.088996 -3.164166 -8.164117 9.331931 -1.727471 25.678880 -3.498365 1.643211 -2.685768 3.046033 -4.227047 -9.495025 -8.709337 2.403395 29.202091 -2.953770 0.482490 -16.007220 -15.067585 -7.308128 1.928963 25.276278 12.751771 3.403798 8.796091 1.389242 -1.507922 -4.020372 2.526282 1.028720 0.267530 -0.097530 0.341310 9.132950 12.238134 5.922297 -27.493538 -12.207008 0.462318 -6.596073 1.722616 -0.162423 1.863730 -1.280372 -0.572340 0.567580 0.159520 -0.322440 
0.397040 16.613650 -1.189280 -3.174912 -2.055152 -3.729294 -15.256447 13.442778 3.586418 10.376821 -3.044241 -14.621754 -18.427682 14.404967 31.470315 -0.088814 8.887721 1.831522 0.338970 -0.312760 0.302240 18.056344 -10.250948 2.839815 -8.312596 4.360255 -13.892869 18.081902 -13.234290 33.072789 -1.002480 -6.739671 2.191354 -0.051490 0.696730 0.393360 -3.119549 -3.085763 -8.234537 9.367674 -1.790442 25.838844 -3.716307 1.597470 -2.290754 3.002254 -4.182249 -9.463886 -8.569485 2.350531 28.945610 -2.897760 0.447460 -16.123300 -15.361001 -7.379492 1.997386 24.962959 12.704006 3.341200 9.393178 1.562205 -1.480850 -4.030495 2.523657 1.024560 0.266900 -0.095580 0.341920 9.475213 12.195292 5.908311 -27.255577 -12.164586 0.437356 -6.586718 1.608532 -0.180287 1.865652 -1.282680 -0.568590 0.567120 0.154990 -0.321920 
0.396100 16.563910 -1.195990 -3.061133 -2.038002 -3.798976 -15.266801 13.268568 3.676164 11.168121 -3.287737 -15.386839 -19.741722 15.429375 32.665376 0.005696 9.317050 1.677739 0.346080 -0.304580 0.306340 18.073716 -10.124461 2.875560 -9.300722 4.730283 -14.821804 19.416648 -14.239987 34.460940 -1.083805 -7.120429 2.057810 -0.044980 0.693560 0.391000 -3.136393 -3.026064 -8.312076 9.251168 -1.815106 25.957563 -3.853702 1.553353 -1.922330 2.955146 -4.129764 -9.449080 -8.437850 2.295006 28.759925 -2.835340 0.398080 -16.145700 -15.601523 -7.470468 2.074768 24.669417 12.703877 3.296154 9.754472 1.666372 -1.465999 -4.037097 2.522714 1.022090 0.266840 -0.097920 0.341710 9.788112 12.177070 5.904090 -27.010142 -12.246111 0.457491 -6.513971 1.739537 -0.184645 1.860692 -1.287934 -0.567420 0.566630 0.152680 -0.324280 
